PathFileType	4	(X/Y/Z)	Patient4_TMGait_0pt6_01_left_42.trc.trc
DataRate	CameraRate	NumFrames	NumMarkers	Units	OrigDataRate	OrigDataStartFrame	OrigNumFrames
83.832335329342	83.832335329342	5	33	mm	83.832335329342	124	       141
Frame#	Time	Sacral			L.Shoulder			Chest			R.Shoulder			Neck			R.ASIS			L.ASIS			R.Thigh.Superior			R.Thigh.Lateral			R.Thigh.Inferior			R.Patella			L.Thigh.Superior			L.Thigh.Lateral			L.Thigh.Inferior			L.Patella			L.Shank.Superior			L.Shank.Lateral			L.Shank.Inferior			R.Shank.Superior			R.Shank.Lateral			R.Shank.Inferior			R.Heel			R.Midfoot.Superior			R.Midfoot.Lateral			R.Toe			L.Heel			L.Midfoot.Lateral			L.Midfoot.Superior			L.Toe			L.Elbow			L.Wrist			R.Elbow			R.Wrist			
		X1	Y1	Z1	X2	Y2	Z2	X3	Y3	Z3	X4	Y4	Z4	X5	Y5	Z5	X6	Y6	Z6	X7	Y7	Z7	X8	Y8	Z8	X9	Y9	Z9	X10	Y10	Z10	X11	Y11	Z11	X12	Y12	Z12	X13	Y13	Z13	X14	Y14	Z14	X15	Y15	Z15	X16	Y16	Z16	X17	Y17	Z17	X18	Y18	Z18	X19	Y19	Z19	X20	Y20	Z20	X21	Y21	Z21	X22	Y22	Z22	X23	Y23	Z23	X24	Y24	Z24	X25	Y25	Z25	X26	Y26	Z26	X27	Y27	Z27	X28	Y28	Z28	X29	Y29	Z29	X30	Y30	Z30	X31	Y31	Z31	X32	Y32	Z32	X33	Y33	Z33	

124	52.557214285714	787.259107681234	1005.574371312439	488.042875047433	949.263965452748	1430.692873786338	298.944558422594	1068.317121104300	1354.838819990481	443.905225154983	1009.397815946761	1427.596635407505	626.431963669433	968.711412540484	1488.981665849211	450.178852105028	1016.299269566906	932.788444926865	587.915496905173	986.468676930519	952.616888219959	313.878875136412	1010.943101920329	719.386077903892	560.125175483030	905.667611900506	627.673697875299	622.418173428860	963.392387252881	560.935888229670	540.931103167727	942.384711627732	476.476420297502	543.604644389313	1060.729139793288	768.560015253180	349.699069242321	1008.644708406854	638.093654718276	277.369630722429	1109.374785791453	579.818905731477	342.287347281004	1132.797828289528	513.297363912761	342.387103577248	1117.168729683860	441.116243783022	333.300766668593	1052.225151011429	309.887068877720	285.546776860241	1138.702274815632	213.161474896240	345.147638186145	903.128496394762	393.878883751072	549.988309270414	818.906338148026	300.485325388250	611.814908996900	844.519438391762	201.772092731236	546.026284835724	692.120293481236	45.087431114902	514.269917695282	864.161084417818	95.882699528443	551.432297241918	774.226664570059	37.076951038743	589.327726649201	982.676669642456	40.355662052739	581.490458692012	1054.076046635277	38.533531871002	388.516774898624	1126.917913120747	40.646393596266	307.122743482490	1200.131849763669	114.742661254567	326.922060436155	1332.503275294515	80.660472374141	299.392977561109	820.471248154809	1096.903495418364	201.901297291874	795.325759500702	839.094328398675	200.589118236203	1159.253334112482	1120.071834969759	722.071587582932	1360.263698793239	1229.199687956288	622.310188663322	
125	52.569142857143	788.842150593223	1004.187597478487	486.085904762270	949.588657755591	1429.397626484082	296.954159082473	1068.789974668740	1354.109365151212	442.139133989175	1009.185195232146	1426.746098934719	624.541054330862	968.519752060926	1487.872332231237	448.208680584958	1017.788356832760	931.513588293769	586.638792405151	988.609054218489	951.151141187404	312.660895181780	1011.625037089947	717.842794933038	559.547877942988	905.256510773900	626.714280393429	621.320931481367	962.864385755149	559.445466805803	540.162710288120	941.062388915615	474.593121168175	542.628428045106	1062.211180740279	765.990609111069	349.136707961390	1008.832108229032	636.164914481184	276.912229263420	1108.983358556960	577.420463966868	342.434440180802	1130.997924597205	510.112521207808	342.833822681617	1114.975614410981	437.899953538176	333.314924936902	1048.457162628272	307.419932529144	285.619346472064	1133.492623140062	209.723862420377	345.686601989011	900.645904571245	392.562856623975	549.126787171801	815.062542678216	300.428258378256	611.216853045603	839.094270261929	201.240663915278	545.681415570727	684.952265779193	45.675015351903	514.421681298764	857.187272436155	95.900275772085	551.437586568310	767.100470246851	37.290900301167	589.340657190716	975.573134590349	40.032455005808	581.615794087284	1045.684369882649	37.621477074803	389.165755222279	1118.239404779611	38.540163220742	307.405405487905	1193.581139265365	110.177784576534	327.860307669351	1325.103560784360	72.463945108430	299.531100383016	821.116654906862	1095.510085436255	200.132752333983	797.085930636590	837.500366724959	199.137658878976	1160.084953128886	1119.491848862285	720.270560116990	1356.879689820668	1233.773501959658	618.566464836944	
126	52.581071428571	790.340793144683	1002.938374516854	484.094814144193	950.081269444458	1428.117183723828	294.832394155580	1069.375468350534	1353.415589965796	440.305100731886	1009.074234434897	1426.031302655468	622.548005670079	968.482243294760	1486.854875501646	446.078595476936	1019.228097745333	930.279979097325	585.269854624804	990.630090298063	949.912768483148	311.396878813935	1012.498150839491	716.387650443876	558.734529194016	905.216683109619	625.727855309467	620.012309550052	962.773685201900	557.992794011499	539.143403837379	940.271063193434	472.586392448905	541.456249245145	1063.735097700616	763.836507922336	348.581416429151	1009.315105851768	634.737294757834	276.266459614693	1108.908933336027	575.558141403834	342.428622146428	1129.549386961573	507.508959608318	343.057161163432	1113.211829020666	435.222852725992	333.107944148816	1045.290387517566	305.471679102942	285.358078792470	1128.813875658321	206.875850585268	345.982771107671	898.539770667616	391.192612192802	548.095863988955	811.533689701861	300.446597462926	610.509987528699	833.847104293342	200.771398766839	545.269179507221	677.799307613604	46.515542038747	514.596800530218	850.307181245743	95.968519134598	551.447941353056	760.007186283405	37.618477755986	589.355474020043	968.515957593641	39.687106780984	581.740329180955	1037.866824921999	37.148118421625	389.614570543997	1110.160177525043	36.994690500195	307.518867453144	1187.429031405106	106.350972380797	328.604236559768	1318.125808196266	65.338859752462	299.563675641736	822.476808253438	1093.839137291556	198.216953771950	799.741599136919	835.600557450967	197.546326954613	1160.314524838745	1118.620011112441	718.684106123617	1353.429174959107	1237.080850823331	615.090780705636	
127	52.593000000000	791.731393186110	1001.897631604087	482.093068997013	950.726222063525	1426.927203481220	292.612715250375	1070.072285544304	1352.806364464404	438.410058965451	1009.118876118730	1425.513777742347	620.471904526351	968.617715321891	1485.993738246522	443.822249093186	1020.587615243270	929.166558797583	583.785336682385	992.478468547819	948.985667992003	310.046179954232	1013.539638579370	715.100423311723	557.628436214043	905.591546231030	624.760658459541	618.493909455393	963.178912634580	556.635379562677	537.874568152093	940.107324193697	470.488520446352	540.144054004868	1065.306919414195	762.264571208320	347.967526125504	1010.124406690751	633.872036664248	275.456944097180	1109.198687971994	574.300425585171	342.206864294309	1128.528060942052	505.555061820006	343.038602530313	1111.912978887424	433.127185705842	332.725779622469	1042.731397451969	304.106111073955	284.783179952702	1124.603832700990	204.646932719102	346.075997374767	896.866599304936	389.808327823803	546.934267700005	808.364835761655	300.607817605796	609.718691215935	828.830685601545	200.428973010788	544.818288120077	670.690840779674	47.719078408118	514.796527540465	843.567736392331	96.106804480350	551.483115337595	752.965369144750	38.113282102920	589.376084863468	961.510545919257	39.318526309821	581.858251548755	1030.582129162462	37.039396572970	389.884585455450	1102.651334042428	35.975558328111	307.498288029516	1181.570832146962	103.333344006342	329.157456500063	1311.509765443157	59.507417125439	299.515010784149	824.552686309675	1091.971484229049	196.176079559300	803.283034738825	833.479017837823	195.815588082728	1159.881682823337	1117.484073268586	717.318990899995	1349.971088006358	1239.120761024442	611.890785450923	
128	52.604928571429	793.005275609261	1001.123540481615	480.088676535596	951.498825935201	1425.903975966574	290.329394098308	1070.871277519308	1352.331114007365	436.460485632731	1009.358095897808	1425.244034977124	618.333244620003	968.929983755912	1485.346833405421	441.478357602160	1021.843615203331	928.252173402528	582.165281080219	994.127858728219	948.429343243637	308.563244446809	1014.732876887863	714.058933425850	556.204449653907	906.419230915740	623.862700592351	616.787202552075	964.144336514670	555.431787095554	536.388919447863	940.672606485411	468.341277887456	538.783181699223	1066.930026107872	761.377846382443	347.221939004239	1011.239334797108	633.567614479811	274.519560263204	1109.831706094048	573.630507927425	341.724632515469	1127.929854805325	504.232599604818	342.794784627066	1111.030779713305	431.588523714149	332.236959944727	1040.690306587185	303.322348298593	283.951598490553	1120.720564871688	203.002286354360	346.029849042003	895.694002619417	388.457757667100	545.706976804801	805.605791921057	300.989130549212	608.878332795939	824.110623674964	200.287254496186	544.370607377040	663.672994900767	49.414947868615	515.021062087665	837.026133007830	96.337543445704	551.568343683826	746.000158466963	38.843790772767	589.406949021176	954.556239676007	38.930287794517	581.962945164431	1023.711125911207	37.193476572187	390.002024776706	1095.603589643147	35.405996927095	307.381984445413	1175.854108083177	101.113032574980	329.543739016059	1305.139334406470	55.044394320206	299.417301908203	827.316594951140	1090.005123340944	194.033368498099	807.704036748505	831.237830680808	193.946915776935	1158.727253744667	1116.122819829912	716.174178274446	1346.554918932489	1239.872120090909	608.976646677380	
